<svg width="459" height="470" viewBox="0 0 459 470" fill="none" xmlns="http://www.w3.org/2000/svg">
<g clip-path="url(#clip0_41_15836)">
<path d="M221.832 0.807785C220.474 3.01091 220.437 4.29607 220.107 62.4218C219.961 93.6328 219.704 119.813 219.63 120.621C219.52 121.429 219.263 124.33 219.043 127.047C218.236 136.814 216.512 148.123 214.42 157.23C212.586 165.234 207.376 184.218 203.34 197.547C200.441 207.094 199.377 209.15 192.92 217.632C189.14 222.626 185.618 229.823 182.94 237.937C180.702 244.767 180.298 246.64 182.022 242.344C183.71 238.158 187.122 231.291 189.984 226.371C193.984 219.505 198.973 211.573 198.68 212.602C197.909 215.098 194.424 222.699 191.122 228.941C181.435 247.337 179.087 252.809 175.822 264.742C169.621 287.471 166.319 309.539 164.301 342.402C163.64 353.161 163.787 468.531 164.484 468.972C165.218 469.449 166.245 469.302 167.86 468.531C169.694 467.65 171.015 465.447 171.896 461.885C172.666 458.837 172.96 449.658 172.52 442.828C172.263 438.385 172.483 431.115 173.95 398.766C174.941 377.469 175.895 353.491 176.115 345.523C176.849 316.993 177.253 306.198 177.803 298.67C179.344 276.969 182.94 260.519 189.361 245.171C190.351 242.784 193.507 236.028 196.368 230.116C204.917 212.381 206.532 208.636 209.65 199.199C213.98 186.017 219.924 159.8 221.942 144.855C224.4 126.827 224.657 117.941 224.363 63.5234C224.143 20.8562 224.143 16.5601 224.73 10.9789C225.427 4.3695 225.281 1.83591 224.143 0.697629C223.226 -0.22034 222.492 -0.183621 221.832 0.807785Z" fill="#614223"/>
<path d="M181.069 0.697546C180.665 0.88114 179.968 0.954577 179.528 0.844421C178.867 0.697546 178.684 0.807702 178.684 1.32176C178.684 1.72567 178.427 2.68036 178.133 3.48817C177.803 4.44286 177.62 6.46239 177.583 9.10614C177.583 15.2015 175.785 29.9624 172.997 47.1835C171.052 59.1905 169.548 66.2772 164.558 87.0233C163.017 93.3757 161.549 99.6546 161.256 100.976C160.412 104.758 154.761 121.208 152.303 126.973C146.69 140.082 139.315 153.117 132.05 162.664C130.252 165.051 126.73 168.282 125.556 168.612C124.785 168.833 112.971 155.063 106.733 146.691C95.396 131.416 86.7003 115.737 82.8478 103.547C77.7111 87.2804 74.4089 74.2819 70.6665 55.4452C67.9881 41.9327 67.5845 38.628 67.1442 27.1718C66.6305 13.5858 65.8233 7.96786 63.8053 4.00223C62.9614 2.31317 61.1269 0.734265 59.9895 0.734265C59.1823 0.734265 59.1456 0.88114 58.8888 4.66317C58.3384 12.521 59.5492 37.2694 61.1269 50.4882C67.8046 106.998 88.6816 157.633 123.391 201.329L125.959 204.56L127.243 202.651C149.001 170.301 163.384 130.902 173.547 75.8241C176.556 59.5577 185.251 1.32176 184.774 0.807702C184.444 0.477234 181.766 0.403796 181.069 0.697546Z" fill="#614223"/>
<path d="M261.347 0.624062C260.43 0.99125 260.797 48.0647 262.118 98.9569C262.448 110.854 262.852 128.626 263.072 138.43C263.586 162.187 264.429 170.889 267.475 183.851C269.97 194.279 273.125 201.953 279.803 213.556C296.424 242.527 305.119 272.012 308.422 310.64C309.669 325.512 309.486 353.051 308.018 372.512C306.624 390.357 305.67 398.655 303.065 415.289C299.726 436.623 298.185 443.673 294.993 452.926C293.342 457.662 289.966 464.823 288.058 467.54C287.434 468.458 286.921 469.265 286.921 469.339C286.921 469.633 293.378 468.641 294.075 468.274C296.35 466.989 298.882 463.317 300.716 458.617C306.624 443.232 310.073 415.803 311.54 371.777C312.017 357.567 311.76 308.694 311.173 297.789C310.109 278.732 309.155 267.9 308.055 262.649C306.624 255.966 303.065 246.787 294.552 228.023C284.389 205.588 281.16 197.253 279.032 187.816C278.482 185.393 277.822 182.823 277.565 182.125C276.354 179.04 273.712 161.489 272.611 149.445C271.401 135.786 271.181 129.58 270.814 100.426C270.373 67.8928 270.227 60.4756 269.456 34.5889C269.052 20.7092 268.979 14.2467 269.236 11.2725C269.97 3.12094 268.649 0.330312 264.026 0.40375C262.815 0.40375 261.568 0.513906 261.347 0.624062Z" fill="#614223"/>
<path d="M337.15 0.62415L335.829 0.771025L335.646 63.8171C335.462 128.295 335.756 182.345 336.453 208.195C337.077 232.54 337.26 236.579 340.269 292.648C341.626 317.727 341.92 324.851 342.324 342.953C342.691 359.807 342.287 388.411 341.663 388.815C341.48 388.925 341.223 391.422 341.076 394.359C340.856 399.72 340.085 407.835 338.655 419.695C337.04 433.244 336.233 437.247 332.601 449.437C329.372 460.306 328.308 464.896 328.455 467.062L328.565 468.715L330.729 468.825C333.555 468.972 337.811 468.311 339.205 467.503C341.26 466.291 341.48 465.447 341.92 456.23C342.14 451.567 342.58 443.489 342.874 438.238C346.103 381.765 346.616 327.862 344.709 238.855C344.085 209.444 343.571 162.811 343.057 89.5937C342.58 20.2687 342.544 10.2077 342.874 7.12337C343.388 2.01946 341.737 0.146806 337.15 0.62415Z" fill="#614223"/>
<path d="M381.252 0.624238L380.372 0.807832L380.628 4.70002C381.546 20.3422 381.729 28.1266 381.766 51.0391C381.766 76.2281 381.582 81.6258 380.261 99.6914C378.904 118.418 377.583 126.9 371.309 156.605C369.511 165.088 367.493 174.928 366.833 178.453C366.172 181.978 365.585 184.622 365.512 184.328C365.218 182.749 371.969 146.361 374.648 135.162C375.749 130.535 375.969 129.066 375.308 130.719C374.721 132.151 370.061 151.502 368.594 158.441C365.072 175.369 362.797 191.341 361.769 206.91C360.742 222.589 360.338 265.587 361.036 282.477C362.173 308.915 364.008 327.972 368.741 361.496C371.896 383.784 373.364 396.269 374.464 409.781C375.272 419.438 375.382 444.334 374.685 450.355C373.841 457.552 372.556 464.088 371.089 468.972C370.905 469.596 371.382 469.633 377.546 469.633C387.82 469.633 387.93 469.523 388.15 460.637C388.333 450.906 387.379 427.443 386.132 411.801C384.885 395.865 383.967 389.659 379.014 362.23C373.29 330.505 371.529 319.894 369.695 306.051C366.613 282.771 365.585 265.036 365.952 242.344C366.392 213.887 368.337 194.977 374.244 161.746C378.28 138.944 380.078 125.321 382.096 101.711C383.307 87.9414 386.499 44.8703 387.269 32.2391C387.563 27.282 388.077 21.3336 388.407 19.057C388.737 16.7438 389.031 12.8883 389.031 10.4649C389.067 6.46252 388.994 5.87502 388.077 3.92893C387.269 2.16643 386.866 1.68908 385.545 1.10158C384.004 0.403925 383.05 0.293769 381.252 0.624238ZM365.328 186.605C365.218 186.898 365.108 186.788 365.108 186.384C365.072 185.98 365.182 185.76 365.292 185.907C365.402 186.017 365.438 186.348 365.328 186.605Z" fill="#614223"/>
<path d="M12.9882 1.10153C11.704 1.6156 10.3464 3.56169 9.94285 5.50778C9.42918 7.96794 9.42918 9.28982 10.0896 16.707C10.3831 20.1218 10.7867 27.2453 11.0069 32.4961C11.7774 51.6265 14.5292 77.1828 18.4918 102.262C23.4817 133.877 31.9939 159.837 50.8162 200.852C57.4572 215.319 61.4198 225.086 65.1623 236.285C74.8853 265.403 80.8659 296.651 84.3515 336.527C85.8191 353.124 86.4062 363.295 88.2407 401.152C89.3047 423.22 89.4882 429.977 89.4148 442.094C89.3414 454.468 89.4515 457.002 89.9652 459.352C91.6162 466.842 93.781 469.633 97.8903 469.633H99.6882L99.945 464.382C101.229 437.834 100.752 402.107 98.6975 375.449C95.4688 333.259 88.5709 290.996 78.481 251.009C73.7846 232.577 69.9321 223.544 54.7788 195.711C42.0105 172.248 37.5709 162.848 33.9385 151.648C25.3896 125.358 19.3723 92.164 16.5472 55.9961C15.1162 37.8203 14.9328 32.3492 15.1896 16.2297L15.4098 0.734346L14.6026 0.771065C14.1256 0.771065 13.4285 0.91794 12.9882 1.10153Z" fill="#614223"/>
<path d="M39.4057 2.64377C39.5158 3.70861 39.6992 7.16018 39.8093 10.2813C40.433 26.511 42.5611 53.4625 44.2489 66.6446C47.5143 92.3477 54.2287 120.731 64.0985 150.73C70.9596 171.623 74.6654 180.509 89.3417 211.316C109.338 253.323 114.255 266.541 117.557 287.177C119.355 298.523 119.942 308.805 120.309 337.629C120.492 350.554 121.042 378.02 121.483 398.656C122.29 434.823 122.29 436.439 121.703 443.452C120.345 458.911 121.189 464.676 125.225 467.944C126.509 468.972 126.95 469.082 129.481 469.192L132.343 469.339L132.6 455.239C132.71 447.455 132.637 425.607 132.416 406.623C131.719 348.938 132.343 323.529 135.242 294.484C138.067 266.101 143.387 240.471 151.349 217.081C154.284 208.379 156.375 203.422 163.64 187.816C167.236 180.142 170.832 172.284 171.639 170.375C178.316 154.586 181.839 140.853 188.553 103.914C193.213 78.211 195.671 56.4367 198.313 17.4414C199.414 0.844552 199.414 1.10158 198.57 1.10158C197.579 1.10158 196.075 2.9008 195.414 4.8469C194.387 7.93127 194.057 12.7781 194.13 23.6469C194.204 35.1031 194.13 36.2414 191.525 55.9961C187.709 84.6735 182.096 110.303 173.363 138.98C167.566 157.891 164.778 165.308 151.275 197.363C148.45 204.009 145.772 210.435 145.295 211.573C144.818 212.748 144.378 213.63 144.304 213.556C144.194 213.446 146.983 205.919 150.542 196.813C151.459 194.499 155.201 185.173 158.87 176.103C162.503 167.07 165.438 159.58 165.365 159.506C165.291 159.396 164.374 161.269 163.347 163.655C162.319 166.042 159.237 172.872 156.486 178.82C144.194 205.368 140.232 215.245 135.902 230.153C132.343 242.417 128.381 260.336 126.729 271.462C126.363 273.812 125.959 275.648 125.849 275.501C125.702 275.317 125.298 274.142 124.968 272.82C123.831 268.598 121.042 260.299 118.988 255.012C117.887 252.184 115.942 247.044 114.658 243.629C107.54 224.315 100.239 209.444 93.5978 200.705C90.6992 196.923 80.8294 176.838 75.8395 164.684C72.5007 156.495 66.2266 136.116 62.5208 121.392C54.8525 90.8055 49.1287 53.2789 45.0194 6.05861L44.5791 0.917989L41.9007 0.807833L39.1855 0.697677L39.4057 2.64377ZM85.5625 188.734C86.7366 190.864 87.287 192.113 86.81 191.525C85.8927 190.423 82.5539 184.291 82.5539 183.741C82.5539 183.557 82.774 183.741 82.9942 184.145C83.2143 184.548 84.3517 186.605 85.5625 188.734Z" fill="#614223"/>
<path d="M71.6934 1.35849C71.7668 1.72567 71.9502 3.9288 72.097 6.24208C74.5186 49.7538 83.7279 85.9952 99.3582 113.461C105.522 124.293 115.465 137.585 122.657 144.598L124.271 146.177L127.573 143.13C149.037 123.265 161.292 94.3671 166.906 50.3046C168.447 38.2976 171.602 1.61552 171.162 1.17489C170.832 0.807706 169.768 1.61552 168.887 2.90067C167.346 5.17724 166.612 11.2358 166.575 21.664C166.575 30.2194 165.475 40.0233 162.87 54.8944C160.338 69.2882 158.65 75.971 154.651 86.9499C150.285 99.0304 146.542 106.888 141.039 115.37C137.039 121.576 129.848 130.719 126.326 134.133L124.895 135.492L121.813 133.399C118.034 130.829 111.173 124.256 108.017 120.217C100.973 111.221 94.8452 98.7733 89.9287 83.6085C87.1035 74.8694 86.8466 73.6577 82.9207 50.0108C77.6006 18.139 75.3625 7.16005 73.161 2.64364C72.2805 0.844425 71.2898 -0.000106554 71.6934 1.35849Z" fill="#614223"/>
<path d="M160.338 7.41719C160.338 25.8133 157.11 44.3563 150.615 63.4867C146.799 74.6859 140.929 88.0883 135.242 98.4063C132.087 104.134 125.372 115.297 125.079 115.297C124.675 115.297 118.841 107.329 115.319 101.968C110.843 95.1383 106.11 86.7664 102 78.3945C98.1844 70.5367 93.6347 59.5945 92.6808 55.9961C92.3872 54.7844 90.5527 45.9352 88.6081 36.3516C84.0585 13.843 82.0772 5.875 80.1326 2.5336C79.1052 0.807818 78.6649 0.844536 78.8117 2.64375C81.7469 43.475 92.9009 78.7617 111.54 106.484C115.686 112.69 124.528 124.109 125.152 124.109C125.262 124.109 126.51 123.155 127.904 121.98C134.068 116.802 139.902 108.43 144.011 98.7734C150.358 83.9391 157.073 55.2984 161.402 24.2344C162.32 17.7719 164.374 1.61563 164.374 0.917974C164.374 0.807818 163.457 0.73438 162.356 0.73438H160.338V7.41719Z" fill="#614223"/>
<path d="M211.778 1.02815L209.834 1.1383L210.127 3.41486C210.567 6.90315 210.421 24.4914 209.907 30.4766C209.687 33.4141 208.99 40.5742 208.366 46.4492C202.899 99.8016 199.67 123.889 194.644 148.895C193.103 156.422 191.635 162.591 191.562 161.746C191.525 161.526 191.855 159.653 192.259 157.56C193.029 153.558 193.029 152.052 192.259 155.394C191.342 159.213 188.957 166.703 186.645 172.798C183.526 181.023 180.811 187.192 172.813 204.34C163.347 224.572 157.366 238.635 157.513 240.141C157.549 240.434 156.889 242.821 156.045 245.465C151.642 259.161 148.89 274.766 147.313 294.374C145.735 314.57 144.891 386.942 145.552 447.014L145.772 469.339L150.688 469.192C153.367 469.082 155.642 468.972 155.715 468.862C155.788 468.788 155.642 463.427 155.348 456.965C153.403 410.442 153.844 362.818 156.522 327.348C158.724 298.046 164.154 255.342 166.832 246.199C168.153 241.573 170.281 236.506 175.711 224.792C180.958 213.409 182.279 210.178 184.884 201.953C199.854 154.659 208.293 104.061 212.255 37.8203C212.952 25.8133 213.98 2.42346 213.833 1.57893C213.759 1.02815 213.429 0.917989 211.778 1.02815Z" fill="#614223"/>
<path d="M236.655 2.05622C236.618 2.86403 237.095 36.0578 237.645 75.8242C238.452 136.08 238.563 148.637 238.159 150.841C237.902 152.309 237.572 153.411 237.388 153.301C237.242 153.191 236.985 153.705 236.875 154.439C236.434 156.752 233.022 168.906 230.601 176.801C228.069 185.062 226.051 189.836 217.759 207.094C215.191 212.455 211.558 220.055 209.687 223.984C207.816 227.913 204.954 233.788 203.339 237.02C198.606 246.493 196.038 253.396 193.36 263.751C189.36 279.246 187.526 293.823 185.471 326.062C185.141 331.02 184.407 341.815 183.82 350.113C181.325 385.18 180.334 409.267 179.931 445.949C179.674 466.548 179.711 468.054 180.298 468.641C181.912 470.22 185.288 468.715 185.288 466.402C185.288 462.252 187.563 416.244 188.406 402.437C192.296 341.521 195.231 314.166 201.285 282.367C206.128 256.921 208.623 249.137 220.254 223.066C231.004 198.979 234.93 187.523 236.838 174.928C237.132 172.982 237.425 171.293 237.498 171.22C237.572 171.146 237.755 171.844 237.902 172.798C238.269 175.699 240.581 184.328 242.305 189.285C247.222 203.605 253.349 214.952 266.264 233.568C276.537 248.439 281.747 258.096 286.004 270.36C291.581 286.333 293.635 300.984 294.626 331.607C295.323 352.867 293.965 378.57 291.287 394.727C289.966 402.878 288.022 410.405 282.701 428.324C277.161 446.867 275.253 454.321 273.749 463.354C272.722 469.339 272.758 469.633 273.896 469.633C275.51 469.633 277.271 468.641 278.262 467.209C279.656 465.153 280.243 461.555 280.61 453.109L280.94 445.545L283.729 437.32C286.554 429.022 288.425 422.009 290.773 411.323C298.882 373.944 300.753 339.061 297.194 292.795C296.057 277.998 292.975 265.734 287.104 252.625C283.875 245.355 281.197 241.242 272.245 229.676C269.75 226.445 266.851 222.479 265.824 220.863C261.824 214.768 255.917 201.843 253.202 193.324C251.845 189.065 247.662 172.872 247.075 169.457C246.928 168.649 246.745 168.172 246.671 168.429C246.561 168.686 246.855 170.595 247.258 172.725C248.763 180.142 247.845 177.388 245.497 167.254C242.268 153.448 242.635 161.342 241.938 87.3906C241.424 35.6172 241.388 20.4156 241.755 16.5234C242.709 5.25075 241.828 1.46872 237.975 0.844503L236.655 0.62419V2.05622Z" fill="#614223"/>
<path d="M290.077 45.7883C289.71 115.37 290.664 140.67 294.993 172.762C297.451 190.791 299.396 200.558 305.45 224.535C314.696 261.217 318.475 283.505 320.31 312.477C320.823 320.188 320.823 347.727 320.31 357.824C319.613 372.438 317.595 397.554 317.374 394.359C317.264 392.523 317.118 393.441 316.457 399.867C313.889 425.423 308.128 450.98 301.047 468.238C300.827 468.825 301.047 468.898 303.395 468.898C306.551 468.898 307.651 468.384 309.449 466.218C312.935 461.959 316.017 451.053 318.108 435.484C318.548 432.363 319.613 424.652 320.493 418.41C323.282 398.876 324.933 382.316 325.85 364.25C326.364 354.336 326.327 326.209 325.813 314.313C324.969 294.558 323.025 270.25 321.007 254.277C320.603 251.046 320.346 247.815 320.493 247.117C320.603 246.42 320.566 246.016 320.42 246.273C320.236 246.53 319.759 244.363 319.282 241.132C318.328 234.927 316.751 225.857 312.972 205.074C309.119 183.998 306.11 164.133 306.441 162.334C306.514 162.003 306.771 163.398 307.028 165.418C307.945 172.284 310.44 187.67 313.338 203.936C314.916 212.822 316.42 221.451 316.677 223.066C316.934 224.682 317.228 225.747 317.264 225.453C317.338 225.159 315.503 212.491 313.192 197.363C307.872 162.554 306.991 156.532 305.266 143.203C304.276 135.676 303.836 133.032 303.799 134.574C303.579 140.596 298.479 76.9258 297.048 50.3047C296.057 32.5695 295.984 27.9063 296.497 19.4977C296.864 13.1086 296.864 10.7953 296.534 8.55549C295.8 3.85549 294.223 1.46877 291.471 0.917988L290.333 0.697675L290.077 45.7883ZM304.056 138.687C303.946 139.054 303.872 138.76 303.872 138.063C303.872 137.365 303.946 137.071 304.056 137.402C304.129 137.769 304.129 138.356 304.056 138.687ZM310.66 445.839C310.55 446.096 310.477 445.913 310.477 445.398C310.477 444.884 310.55 444.701 310.66 444.921C310.733 445.178 310.733 445.619 310.66 445.839ZM310.293 447.308C310.183 447.602 310.073 447.491 310.073 447.088C310.036 446.684 310.146 446.463 310.256 446.61C310.366 446.72 310.403 447.051 310.293 447.308ZM308.605 454.211C307.101 459.719 304.936 466.108 304.679 465.851C304.606 465.777 305.156 463.831 305.927 461.518C306.697 459.205 307.908 455.239 308.605 452.669C309.302 450.098 309.89 448.152 309.963 448.336C310.036 448.556 309.413 451.163 308.605 454.211Z" fill="#614223"/>
<path d="M396.26 2.82736C396.186 14.2836 395.489 51.2227 395.159 57.6852C394.095 81.2586 392.334 103.363 390.389 117.427C389.215 125.835 386.647 140.633 383.785 155.32C382.354 162.701 380.593 171.77 379.895 175.516C378.501 183.043 378.208 184.291 378.501 181.574C378.795 178.71 385.472 140.963 387.454 130.939C388.188 127.267 388.298 126.423 388.041 126.716C387.784 126.937 384.812 140.633 382.537 151.832C378.171 173.423 375.162 193.141 373.144 213.52C372.154 223.323 371.75 249.1 372.374 258.904C373.842 280.972 377.034 296.614 384.959 320.922C395.562 353.491 400.662 376.661 402.13 399.316C402.644 407.395 402.57 413.967 401.763 431.996C400.809 453.22 400.332 464.125 400.259 467.063L400.149 469.449H402.57C404.625 469.449 405.139 469.302 405.946 468.568C406.46 468.091 407.01 467.099 407.157 466.365C407.303 465.63 407.413 460.894 407.45 455.863C407.45 450.796 407.634 436.182 407.78 423.367C408.257 387.75 406.9 361.68 403.011 331.387C401.58 320.188 400.552 315.965 395.526 300.359C390.976 286.259 389.692 281.376 388.224 272.27C384.298 248.366 383.675 219.982 386.353 188.184C387.711 172.395 388.995 161.342 394.205 121.502C397.397 97.1945 398.865 83.682 400.626 62.7891C402.57 39.8766 403.011 31.6883 402.754 21.4805C402.534 12.6313 401.983 8.26174 400.626 4.62658C399.855 2.49689 398.167 0.734394 396.957 0.734394C396.37 0.734394 396.26 1.02814 396.26 2.82736ZM378.171 184.769C378.061 185.026 377.988 184.842 377.988 184.328C377.988 183.814 378.061 183.63 378.171 183.851C378.244 184.108 378.244 184.548 378.171 184.769ZM372.667 226.261C372.557 226.555 372.447 226.445 372.447 226.041C372.411 225.637 372.521 225.416 372.631 225.563C372.741 225.673 372.777 226.004 372.667 226.261Z" fill="#614223"/>
<path d="M422.126 33.5243C422.089 65.3594 421.906 73.4375 420.805 82.8008C419.668 92.7149 416.696 103.4 409.101 124.66C403.744 139.678 401.102 148.711 396.222 169.09C394.021 178.343 392.407 189.873 391.416 203.238C390.829 211.684 390.829 239.443 391.416 246.566C393.471 270.213 396.883 283.836 404.845 300.323C409.541 310.016 410.165 311.412 411.742 315.598C416.916 329.441 419.704 344.202 420.842 363.699C421.025 367.114 421.466 380.443 421.759 393.258C423.704 470.918 423.594 467.76 424.401 468.825C424.804 469.376 425.501 469.853 425.942 469.927C426.822 470.073 428.914 469.376 428.914 468.935C429.171 459.205 429.171 381.618 428.914 374.164C428.143 352.353 426.455 334.875 424.107 323.529C423.704 321.583 423.117 318.498 422.86 316.626C421.832 309.943 419.704 303.077 415.595 293.383C410.201 280.568 404.551 263.127 402.166 251.891C399.194 238.048 399.084 223.47 401.799 206.359C403.927 193.177 406.973 181.207 415.045 154.402C424.291 123.669 426.529 112.543 428.217 89.4102C428.804 81.6258 428.804 53.9032 428.217 35.4336C427.996 27.943 427.776 17.111 427.703 11.3094L427.63 0.734428H424.878H422.126V33.5243ZM417.907 106.888C417.43 109.752 415.301 117.573 415.081 117.39C415.008 117.28 415.522 114.93 416.219 112.139C416.916 109.312 417.613 106.411 417.76 105.64C417.87 104.869 418.053 104.318 418.163 104.391C418.237 104.502 418.127 105.64 417.907 106.888Z" fill="#614223"/>
<path d="M435.848 0.99142C435.664 2.35001 435.995 41.8961 436.288 53.4258C436.765 73.6578 438.013 105.86 438.453 110.523C439.003 116.031 439.81 120.658 441.021 124.77C442.415 129.58 442.892 130.755 447.515 140.082C449.717 144.525 452.138 149.629 452.909 151.465C455.477 157.56 457.532 164.684 457.532 167.438C457.532 168.025 457.679 168.576 457.862 168.686C458.046 168.796 458.192 167.621 458.229 166.042C458.229 164.5 458.449 160.057 458.669 156.238C459.146 148.38 458.926 140.339 458.082 135.933C457.348 132.041 455.807 127.708 453.496 123.008C449.203 114.342 447.589 109.569 447.112 104.465C446.965 103.033 446.121 89.1531 445.167 73.6211C443.81 51.5164 443.479 43.4383 443.516 36.5719C443.7 16.5602 442.269 5.72814 439.04 2.35001C437.976 1.24845 435.921 0.367201 435.848 0.99142Z" fill="#614223"/>
<path d="M451.149 8.51878C449.864 49.3133 450.158 61.8711 452.8 76.1914C454.047 83.0211 456.872 93.1555 457.753 93.9633C457.9 94.0735 457.9 82.7641 457.753 68.8477C457.57 47.918 457.606 42.3 458.083 36.5352C459.734 15.6789 458.927 5.72815 455.331 2.12971C454.267 1.06487 453.644 0.734402 452.69 0.734402H451.405L451.149 8.51878Z" fill="#614223"/>
<path d="M96.9003 3.89213C96.7168 12.0437 99.1751 26.8046 102.441 37.0859C106.587 50.121 115.319 66.5343 123.391 76.5218L124.235 77.5867L126.84 72.85C130.692 65.8734 134.802 57.3546 136.82 52.1406C138.654 47.4039 140.709 40.721 141.039 38.2976C141.186 37.3062 141.076 37.5265 140.672 38.9218C139.608 42.7773 137.187 50.0109 135.976 52.8015C135.315 54.3437 133.518 57.6117 131.903 60.0351C127.61 66.6445 126.326 68.8109 125.372 71.0875L124.492 73.1437L123.684 70.9773C122.694 68.2968 118.951 62.2015 112.714 53.0585C109.999 49.0929 107.357 44.8335 106.77 43.5851C102.954 35.1765 99.7988 22.1046 97.3039 4.40619L96.9736 2.01947L96.9003 3.89213Z" fill="#614223"/>
<path d="M96.4961 99.2141C96.4961 99.618 102.293 110.377 104.421 113.865C106.549 117.39 110.695 123.375 111.026 123.375C111.246 123.375 110.989 122.934 109.521 120.805C107.76 118.308 102.403 109.385 99.7983 104.648C97.4134 100.316 96.4961 98.8102 96.4961 99.2141Z" fill="#614223"/>
<path d="M1.68819 123.926C1.83496 142.359 1.76158 144.709 1.10114 150.694C0.220568 158.441 0.183877 161.783 0.881 164.427C2.0551 168.796 4.55006 170.742 9.02632 170.742H11.4112L16.4378 174.12C22.4551 178.123 25.9407 181.538 29.5731 186.898C34.6731 194.426 37.535 200.595 44.0292 217.963C52.945 241.793 56.7609 258.023 63.4386 300.543C66.5206 320.004 67.9148 330.065 69.1256 341.668C70.1529 351.325 70.74 358.265 71.7306 372.695C71.9508 375.853 72.758 398.913 73.4184 420.687C73.7853 432.51 73.7853 437.43 73.4184 445.105C72.758 459.021 73.4918 464.529 76.5004 467.687C77.8213 469.045 78.2249 469.266 79.5091 469.266C80.94 469.266 81.0134 469.229 81.2335 467.87C81.5637 465.704 81.4904 429.426 81.0868 417.125C79.7292 375.89 76.1702 338.804 69.3091 294.484C64.8328 265.587 60.7601 247.668 54.486 229.162C43.9191 198.024 35.8472 182.602 22.5652 168.025C18.4925 163.582 18.1256 163.068 15.7774 158.148C8.21913 142.469 3.59611 125.578 1.83496 107.219C1.61481 104.905 1.57812 110.413 1.68819 123.926Z" fill="#614223"/>
<path d="M4.43968 121.062C4.3663 121.759 6.16414 130.021 7.41162 134.758C9.02601 141.037 10.8238 146.177 13.1721 151.098C15.8505 156.715 17.4649 159.176 23.4454 166.85C29.6462 174.781 32.8015 179.224 36.6174 185.43C39.7728 190.533 43.5152 197.694 45.3131 202.063C45.8634 203.422 46.4138 204.45 46.4872 204.376C46.7807 204.119 43.5886 196.335 40.9102 190.717C35.4433 179.298 30.0864 171.33 21.4641 161.93C14.126 153.888 10.9706 147.205 7.19148 131.747C6.09076 127.23 5.02673 122.898 4.84327 122.09C4.65982 121.282 4.47637 120.841 4.43968 121.062Z" fill="#614223"/>
<path d="M375.749 129.103C375.749 129.507 375.859 129.617 375.97 129.323C376.08 129.066 376.043 128.736 375.933 128.626C375.823 128.479 375.713 128.699 375.749 129.103Z" fill="#614223"/>
<path d="M430.308 143.24C424.731 154.476 420.988 163.545 417.539 174.194C414.971 182.125 411.045 197.07 411.449 197.437C411.522 197.51 412.88 193.728 414.421 189.028C421.942 166.446 427.262 153.778 432.656 145.847L433.72 144.268L435.628 145.847C441.388 150.694 447.406 161.526 449.497 170.889C450.414 175.038 450.231 172.211 449.277 167.364C446.488 153.374 442.489 144.195 436.288 137.622L434.197 135.382L430.308 143.24Z" fill="#614223"/>
<path d="M166.429 156.238C166.099 157.193 166.172 157.413 166.612 156.679C166.832 156.312 166.943 155.908 166.832 155.834C166.759 155.724 166.576 155.908 166.429 156.238Z" fill="#614223"/>
<path d="M165.695 158.074C165.365 159.029 165.439 159.249 165.879 158.515C166.099 158.148 166.209 157.744 166.099 157.67C166.026 157.56 165.842 157.744 165.695 158.074Z" fill="#614223"/>
<path d="M1.68792 177.572C1.32102 178.49 0.550512 188.624 0.587203 191.855C0.587203 193.618 0.807347 195.197 1.13756 195.784C1.43109 196.298 3.77929 198.391 6.42102 200.374C14.4563 206.469 17.575 209.774 23.3721 218.476C28.362 225.93 32.398 233.568 35.3332 241.058C38.7455 249.834 44.616 269.479 47.2577 280.898C53.1649 306.528 55.3296 324.41 58.3383 373.062C58.962 382.866 60.2095 402.511 61.1268 416.758C62.3376 435.117 62.8512 445.582 62.8879 452.742C62.9613 461.151 63.0714 463.17 63.6217 464.786C64.3555 467.062 65.7865 468.715 67.2541 469.045L68.3181 469.302L68.098 465.887C67.9512 464.015 67.5476 455.533 67.144 447.051C65.8966 421.017 65.3095 409.304 64.7591 398.766C62.0073 348.02 58.0081 310.163 52.4311 281.816C51.844 278.769 50.8534 273.408 50.2663 269.883C48.5419 259.638 45.2764 244.62 44.9095 245.024C44.7994 245.134 45.0563 246.493 45.4599 248.072C46.634 252.772 48.8721 263.971 48.7253 264.412C48.6519 264.632 48.285 263.53 47.9181 261.951C45.7167 252.294 38.3052 228.794 34.4527 219.321C32.5448 214.584 28.9124 207.094 26.7476 203.458C26.0872 202.357 25.7937 201.586 26.0872 201.769C26.3807 201.953 26.1973 201.659 25.6836 201.145C25.1699 200.668 23.739 198.869 22.5282 197.143C18.3088 191.378 11.1908 184.181 4.73325 179.187C2.49512 177.425 1.87138 177.131 1.68792 177.572Z" fill="#614223"/>
<path d="M451.368 181.574C451.368 182.162 451.442 182.382 451.552 182.015C451.625 181.684 451.625 181.17 451.552 180.913C451.442 180.693 451.368 180.95 451.368 181.574Z" fill="#614223"/>
<path d="M451.882 185.246C451.992 186.641 452.322 189.469 452.579 191.488L453.093 195.16L452.873 192.076C452.763 190.387 452.469 187.596 452.176 185.834C451.699 182.712 451.699 182.712 451.882 185.246Z" fill="#614223"/>
<path d="M453.203 196.445C453.203 196.959 453.277 197.143 453.387 196.886C453.46 196.666 453.46 196.225 453.387 195.968C453.277 195.748 453.203 195.931 453.203 196.445Z" fill="#614223"/>
<path d="M28.8756 206.176C30.1965 208.379 32.4713 212.601 33.939 215.539C35.3699 218.476 36.8375 221.451 37.1677 222.148C37.608 223.03 37.7181 223.14 37.5713 222.515C36.8742 219.615 29.4627 205.698 27.1512 203.018C26.7476 202.54 27.5181 203.936 28.8756 206.176Z" fill="#614223"/>
<path d="M235.187 217.559C234.71 218.073 233.646 218.88 232.839 219.358C231.995 219.835 230.784 220.973 230.124 221.891C228.656 223.984 222.162 235.441 219.703 240.287C212.108 255.416 206.825 275.06 203.486 300.58C202.532 307.923 198.79 344.385 198.166 352.867C196.405 375.669 196.515 403.466 198.496 448.666C198.9 457.626 199.23 465.851 199.23 466.952V468.898H202.019C204.183 468.898 204.77 468.788 204.624 468.421C203.963 466.659 202.459 459.572 201.982 455.937C201.211 449.805 201.285 435.521 202.165 422.449C202.532 416.574 203.046 408.423 203.266 404.273C204.147 387.089 206.275 353.381 207.302 340.566C210.054 306.418 216.108 279.723 226.381 256.48C229.426 249.504 236.765 235.771 237.425 235.734C238.012 235.734 247.185 246.75 251.147 252.258C267.291 274.656 275.914 297.422 279.289 326.613C279.583 329.184 279.766 335.426 279.766 343.871C279.729 358.632 279.252 364.691 276.794 380.59C274.483 395.608 268.062 426.488 265.42 435.264C263.659 441.212 262.155 447.491 261.824 450.355L261.604 452.191L262.485 449.805C262.998 448.483 263.402 447.491 263.402 447.602C263.439 447.712 263.035 449.841 262.558 452.375C261.274 458.801 259.696 469.302 259.916 469.559C260.026 469.669 260.76 469.559 261.567 469.339C265.897 468.017 267.401 464.235 269.493 449.254C270.924 438.973 270.814 439.45 273.088 433.648C279.986 415.913 283.985 386.024 285.453 341.301C286.517 309.282 283.288 285.158 275.29 264.926C273.529 260.519 268.392 249.687 265.86 245.098C259.623 233.715 251.074 224.792 241.791 219.982C240.067 219.064 238.159 217.962 237.535 217.485C236.911 217.044 236.324 216.641 236.214 216.641C236.141 216.641 235.664 217.044 235.187 217.559ZM249.166 225.306C252.762 228.06 258.045 234.266 261.054 239.223C261.898 240.581 261.457 240.177 259.403 237.57C258.485 236.469 256.541 234.192 255.073 232.54C252.762 229.933 250.927 228.244 244.36 222.516C242.855 221.194 246.744 223.47 249.166 225.306Z" fill="#614223"/>
<path d="M0.697122 224.278C1.13741 225.159 1.28417 225.894 1.06403 226.371C0.55036 227.693 0.733813 230.373 1.43094 231.952C2.42158 234.119 4.62302 236.395 9.7964 240.544C12.2547 242.527 15.0799 244.987 16.0705 246.016C19.9964 249.981 24.2158 257.362 28.0317 266.945C35.0763 284.533 37.8281 294.558 40.1763 310.751C41.754 321.987 43.4417 341.558 44.1022 357.053C44.5058 367.408 44.1755 384.923 43.2583 399.5C43.0748 402.621 42.7446 412.131 42.5612 420.613C42.3777 429.095 42.0108 437.173 41.7906 438.605C41.5705 440.001 41.3871 441.726 41.3871 442.351C41.3871 443.012 41.2403 443.452 41.0568 443.342C40.8734 443.232 40.7266 443.562 40.7266 444.076C40.7266 445.178 39.8827 448.666 38.6719 452.558C36.654 458.948 33.3885 464.125 29.4993 466.989C28.3619 467.833 27.2978 468.531 27.1144 468.531C26.9309 468.531 26.7842 468.678 26.7842 468.862C26.7842 469.082 30.8201 469.229 36.8374 469.266L46.8906 469.302L47.1108 468.091C48.1381 462.289 49.6058 448.079 50.523 435.117C51.2935 423.881 51.4036 384.666 50.7065 371.043C47.7712 314.202 47.0741 305.867 44.2122 290.262C43.0381 283.946 39.5892 269.993 37.9381 264.962C31.4439 245.061 18.859 230.814 1.39424 223.507L0 222.919L0.697122 224.278ZM5.1 226.738C13.0986 229.455 20.9137 235.698 26.1971 243.629C28.1417 246.566 31.7741 252.992 31.4439 252.992C31.3705 252.992 30.6734 251.964 29.8662 250.679C27.2245 246.346 24.436 242.894 20.2165 238.635C15.5201 233.935 11.3007 230.777 5.72374 227.803C3.66906 226.701 2.12806 225.82 2.23813 225.82C2.3482 225.82 3.63237 226.224 5.1 226.738ZM39.8827 450.98C39.7727 451.273 39.6626 451.163 39.6626 450.759C39.6259 450.355 39.736 450.135 39.846 450.282C39.9561 450.392 39.9928 450.723 39.8827 450.98ZM38.8554 454.468C37.1309 459.719 34.3791 464.639 31.9209 466.879C31.077 467.65 31.2604 467.283 32.618 465.594C34.6727 463.023 37.718 457.112 38.7453 453.77C39.1122 452.595 39.4424 451.714 39.5525 451.787C39.6259 451.898 39.3324 453.073 38.8554 454.468Z" fill="#614223"/>
<path d="M37.791 223.801C37.791 223.984 37.9745 224.425 38.1579 224.719C38.3414 225.013 38.5248 225.086 38.5248 224.902C38.5248 224.682 38.3414 224.278 38.1579 223.984C37.9745 223.691 37.791 223.58 37.791 223.801Z" fill="#614223"/>
<path d="M317.447 226.922C317.447 227.436 317.521 227.619 317.631 227.362C317.704 227.142 317.704 226.701 317.631 226.444C317.521 226.224 317.447 226.408 317.447 226.922Z" fill="#614223"/>
<path d="M153.587 250.458C153.221 251.67 153 252.772 153.11 252.845C153.184 252.919 153.514 251.964 153.881 250.752C154.211 249.504 154.431 248.439 154.358 248.329C154.285 248.255 153.918 249.21 153.587 250.458Z" fill="#614223"/>
<path d="M320.75 249.137C320.75 249.724 320.823 249.945 320.933 249.577C321.007 249.247 321.007 248.733 320.933 248.476C320.823 248.255 320.75 248.512 320.75 249.137Z" fill="#614223"/>
<path d="M321.08 250.973C321.043 251.377 321.373 254.167 321.74 257.215C322.144 260.226 322.878 266.945 323.391 272.086C324.712 285.452 324.566 284.313 324.639 282.514C324.749 280.458 323.795 270.654 322.474 259.969C321.41 251.266 321.117 249.431 321.08 250.973Z" fill="#614223"/>
<path d="M1.13713 254.645C1.13713 255.856 1.06375 260.409 0.916991 264.742L0.660156 272.637L2.93498 279.063C14.676 312.293 20.3263 338.914 22.0141 369.023C23.1882 390.357 21.6105 405.045 15.9235 425.056C12.8048 436.145 11.9609 438.348 8.98893 443.563C3.04505 453.991 1.87095 456.928 1.57742 462.473C1.35728 466.732 1.79757 468.127 3.6321 468.898C7.08102 470.294 14.3825 464.859 18.235 457.993C23.8486 447.895 27.4443 435.484 29.4256 419.145C30.0494 413.967 30.0494 384.923 29.4256 375.082C29.1688 371.227 28.8019 359.917 28.6184 349.93C28.435 339.942 28.1048 328.927 27.8846 325.512C26.3803 301.167 22.7846 285.378 15.5566 271.388C12.4745 265.403 9.1357 260.74 4.65944 256.113L1.10044 252.441L1.13713 254.645ZM5.61339 260.336C7.52131 262.392 10.1263 265.844 9.79613 265.844C9.72275 265.844 9.02562 265.073 8.29181 264.081C7.558 263.127 5.83354 261.217 4.47598 259.822C3.11843 258.427 2.34793 257.472 2.78821 257.692C3.2285 257.913 4.47598 259.088 5.61339 260.336Z" fill="#614223"/>
<path d="M152.669 253.947C152.669 254.351 152.779 254.461 152.889 254.167C153 253.91 152.963 253.58 152.853 253.469C152.743 253.323 152.633 253.543 152.669 253.947Z" fill="#614223"/>
<path d="M456.469 262.833C449.681 286.223 444.471 311.265 442.856 328.082C442.636 330.285 442.416 332.525 442.306 333.039C441.205 338.914 438.674 366.049 437.72 382.426C436.582 402.254 436.032 434.897 436.509 454.027C436.802 465.594 436.839 465.814 437.72 467.43C438.307 468.458 438.931 469.119 439.444 469.192C440.141 469.302 440.251 469.082 440.435 467.356C440.545 466.291 440.728 456.23 440.802 445.031C441.095 415.436 441.792 398.545 443.627 378.02C446.452 346.405 447.773 337.812 452.213 322.391C453.277 318.645 454.524 313.945 454.964 311.926C457.056 302.232 458.01 288.095 457.826 269.809L457.716 258.537L456.469 262.833Z" fill="#614223"/>
<path d="M235.151 266.284C230.638 272.196 228.436 276.896 224.62 288.793C217.759 310.2 215.851 322.868 213.907 360.395C212.439 388.448 212.512 400.014 214.457 433.832C214.934 442.314 215.448 452.302 215.558 456.047C215.668 459.792 215.851 464.198 215.961 465.888L216.182 468.898H218.787H221.428L221.502 457.552C221.538 445.839 221.795 441.323 223.116 426.672C223.777 419.108 223.997 417.786 224.841 415.877C225.721 413.967 225.831 413.27 225.831 409.818C225.794 405.595 225.244 403.135 222.896 397.481C221.979 395.204 221.502 393.074 220.731 387.934C219.3 377.909 218.897 371.447 219.153 361.313C219.484 346.515 221.355 334.508 225.354 321.473C227.959 312.917 232.986 301.718 237.169 295.072L238.746 292.538L241.351 296.173C259.146 321.142 265.934 347.873 261.238 374.605C260.394 379.341 258.596 385.988 257.422 388.741C256.761 390.32 254.67 394.837 252.799 398.766C246.525 411.984 244.177 418.08 242.489 425.387C241.682 428.948 241.645 429.609 241.608 447.051C241.608 467.466 241.498 466.622 244.507 468.127C245.828 468.788 247.038 469.045 249.607 469.192L252.982 469.339L252.836 461.334C252.615 447.455 253.716 440.441 260.137 414.922C266.631 388.888 267.475 383.784 267.732 368.509C268.502 323.713 259.807 291.731 240.03 266.652C238.71 264.999 237.536 263.641 237.425 263.641C237.279 263.641 236.251 264.852 235.151 266.284ZM224.143 411.581C224.18 413.49 224.107 414.959 224.033 414.885C223.96 414.812 223.813 412.498 223.74 409.781C223.593 406.77 223.63 405.485 223.813 406.477C223.997 407.395 224.143 409.671 224.143 411.581Z" fill="#614223"/>
<path d="M324.822 286.039C324.822 286.957 324.896 287.324 324.969 286.847C325.042 286.406 325.042 285.672 324.969 285.195C324.896 284.754 324.822 285.121 324.822 286.039Z" fill="#614223"/>
<path d="M1.35753 317.801C1.68775 319.894 1.61437 421.935 1.28415 423.037C1.13739 423.404 1.17408 423.734 1.35753 423.734C1.68775 423.734 3.22876 418.961 4.98991 412.352C10.1266 393.295 11.741 371.814 9.50286 352.316C8.43883 342.806 6.09063 331.534 3.26545 321.877C1.65106 316.405 0.807173 314.68 1.35753 317.801Z" fill="#614223"/>
<path d="M238.966 321.766C236.618 324.484 233.903 330.689 233.205 335.059C232.985 336.491 232.985 336.491 233.719 334.655C234.526 332.599 237.718 326.283 238.929 324.3L239.663 323.088L241.277 325.365C245.754 331.754 248.652 339.538 249.679 348.057C250.12 351.729 250.156 351.802 250.193 349.563C250.303 341.852 246.854 331.02 241.681 322.978L240.067 320.518L238.966 321.766Z" fill="#614223"/>
<path d="M456.688 364.323C453.386 370.235 451.662 375.743 449.313 387.933C445.388 408.055 444.8 417.676 445.424 449.18C445.644 460.123 445.864 469.082 445.938 469.155C446.341 469.559 448.139 468.641 448.873 467.65C450.634 465.337 451.405 461.371 451.845 452.742C452.065 448.776 452.726 442.644 455.514 418.961C456.541 410.222 457.165 401.079 457.532 388.117C457.899 374.751 458.156 362.047 458.046 362.047C458.009 362.047 457.385 363.075 456.688 364.323Z" fill="#614223"/>
<path d="M233.022 426.856C232.068 429.132 230.821 433.979 230.234 437.871C229.5 442.498 229.06 459.095 229.5 465.337L229.757 469.229L230.601 468.825C232.509 467.981 233.609 464.052 234.16 456.231C234.71 448.483 233.793 425.02 233.022 426.856Z" fill="#614223"/>
</g>
<defs>
<clipPath id="clip0_41_15836">
<rect width="459" height="470" fill="white"/>
</clipPath>
</defs>
</svg>
